<?xml version="1.0" encoding="UTF-8"?>
<svg xmlns="http://www.w3.org/2000/svg" xmlns:xlink="http://www.w3.org/1999/xlink" width="600" height="600" viewBox="0 0 600 600">
<path fill="none" stroke-width="0.01" stroke-linecap="butt" stroke-linejoin="miter" stroke="rgb(0%, 0%, 0%)" stroke-opacity="1" stroke-miterlimit="10" d="M 0 0 L 0.5 1.118047 " transform="matrix(100, 0, 0, -100, 0, 200)"/>
<path fill="none" stroke-width="0.01" stroke-linecap="butt" stroke-linejoin="miter" stroke="rgb(0%, 0%, 0%)" stroke-opacity="1" stroke-miterlimit="10" d="M 0 0 L 1 0 " transform="matrix(100, 0, 0, -100, 0, 200)"/>
<path fill="none" stroke-width="0.01" stroke-linecap="butt" stroke-linejoin="miter" stroke="rgb(0%, 0%, 0%)" stroke-opacity="1" stroke-miterlimit="10" d="M 0.5 1.118047 L 1 0 " transform="matrix(100, 0, 0, -100, 0, 200)"/>
<path fill="none" stroke-width="0.01" stroke-linecap="butt" stroke-linejoin="miter" stroke="rgb(0%, 0%, 0%)" stroke-opacity="1" stroke-miterlimit="10" d="M 0.5 1.118047 L 1.5 1.118047 " transform="matrix(100, 0, 0, -100, 0, 200)"/>
<path fill="none" stroke-width="0.01" stroke-linecap="butt" stroke-linejoin="miter" stroke="rgb(0%, 0%, 0%)" stroke-opacity="1" stroke-miterlimit="10" d="M 1 0 L 1.5 1.118047 " transform="matrix(100, 0, 0, -100, 0, 200)"/>
<path fill="none" stroke-width="0.01" stroke-linecap="butt" stroke-linejoin="miter" stroke="rgb(0%, 0%, 0%)" stroke-opacity="1" stroke-miterlimit="10" d="M 1 0 L 2 0 " transform="matrix(100, 0, 0, -100, 0, 200)"/>
<path fill="none" stroke-width="0.01" stroke-linecap="butt" stroke-linejoin="miter" stroke="rgb(0%, 0%, 0%)" stroke-opacity="1" stroke-miterlimit="10" d="M 1.5 1.118047 L 2 0 " transform="matrix(100, 0, 0, -100, 0, 200)"/>
<path fill="none" stroke-width="0.01" stroke-linecap="butt" stroke-linejoin="miter" stroke="rgb(0%, 0%, 0%)" stroke-opacity="1" stroke-miterlimit="10" d="M 1.5 1.118047 L 2.5 1.118047 " transform="matrix(100, 0, 0, -100, 0, 200)"/>
<path fill="none" stroke-width="0.01" stroke-linecap="butt" stroke-linejoin="miter" stroke="rgb(0%, 0%, 0%)" stroke-opacity="1" stroke-miterlimit="10" d="M 2 0 L 2.5 1.118047 " transform="matrix(100, 0, 0, -100, 0, 200)"/>
<path fill="none" stroke-width="0.01" stroke-linecap="butt" stroke-linejoin="miter" stroke="rgb(0%, 0%, 0%)" stroke-opacity="1" stroke-miterlimit="10" d="M 2 0 L 3 0 " transform="matrix(100, 0, 0, -100, 0, 200)"/>
<path fill="none" stroke-width="0.01" stroke-linecap="butt" stroke-linejoin="miter" stroke="rgb(0%, 0%, 0%)" stroke-opacity="1" stroke-miterlimit="10" d="M 2.5 1.118047 L 3 0 " transform="matrix(100, 0, 0, -100, 0, 200)"/>
<path fill="none" stroke-width="0.01" stroke-linecap="butt" stroke-linejoin="miter" stroke="rgb(0%, 0%, 0%)" stroke-opacity="1" stroke-miterlimit="10" d="M 2.5 1.118047 L 3.5 1.118047 " transform="matrix(100, 0, 0, -100, 0, 200)"/>
<path fill="none" stroke-width="0.01" stroke-linecap="butt" stroke-linejoin="miter" stroke="rgb(0%, 0%, 0%)" stroke-opacity="1" stroke-miterlimit="10" d="M 3 0 L 3.5 1.118047 " transform="matrix(100, 0, 0, -100, 0, 200)"/>
<path fill="none" stroke-width="0.01" stroke-linecap="butt" stroke-linejoin="miter" stroke="rgb(0%, 0%, 0%)" stroke-opacity="1" stroke-miterlimit="10" d="M 3 0 L 4 0 " transform="matrix(100, 0, 0, -100, 0, 200)"/>
<path fill="none" stroke-width="0.01" stroke-linecap="butt" stroke-linejoin="miter" stroke="rgb(0%, 0%, 0%)" stroke-opacity="1" stroke-miterlimit="10" d="M 4 0 L 3.5 1.118047 " transform="matrix(100, 0, 0, -100, 0, 200)"/>
</svg>
